<svg version="1.1" viewBox="0.0 0.0 960.0 720.0" fill="none" stroke="none" stroke-linecap="square" stroke-miterlimit="10" xmlns:xlink="http://www.w3.org/1999/xlink" xmlns="http://www.w3.org/2000/svg"><clipPath id="p.0"><path d="m0 0l960.0 0l0 720.0l-960.0 0l0 -720.0z" clip-rule="nonzero"/></clipPath><g clip-path="url(#p.0)"><path fill="#000000" fill-opacity="0.0" d="m0 0l960.0 0l0 720.0l-960.0 0z" fill-rule="evenodd"/><path fill="#ff0000" d="m345.03412 528.7769l-19.952759 26.603638l-19.955383 11.640442l-9.976379 2.4934692l-8.312317 22.448792l-22.448822 4.1574707l-19.955383 7.482971l-9.144363 13.301819l-11.640411 3.3254395l-18.291351 -20.78479l-28.267715 -1.6640015l-12.469818 -5.8189087l-15.797897 -6.65094l-19.952759 -17.45929l-21.61679 -0.83203125l-16.627296 -12.472412l-8.314964 -0.82940674l0.8320236 -40.740173l35.750656 -12.469818l47.38845 -36.582672l24.11287 0.83203125l64.84776 22.446167l24.11287 4.989502l19.120728 -15.797882l11.640411 26.606293l9.976379 7.4829407z" fill-rule="evenodd"/><path stroke="#d9d9d9" stroke-width="2.0" stroke-linejoin="round" stroke-linecap="butt" d="m345.03412 528.7769l-19.952759 26.603638l-19.955383 11.640442l-9.976379 2.4934692l-8.312317 22.448792l-22.448822 4.1574707l-19.955383 7.482971l-9.144363 13.301819l-11.640411 3.3254395l-18.291351 -20.78479l-28.267715 -1.6640015l-12.469818 -5.8189087l-15.797897 -6.65094l-19.952759 -17.45929l-21.61679 -0.83203125l-16.627296 -12.472412l-8.314964 -0.82940674l0.8320236 -40.740173l35.750656 -12.469818l47.38845 -36.582672l24.11287 0.83203125l64.84776 22.446167l24.11287 4.989502l19.120728 -15.797882l11.640411 26.606293l9.976379 7.4829407z" fill-rule="evenodd"/><path fill="#ff0000" d="m637.6903 73.16273l4.989502 19.12336l-19.955383 23.280846l-0.82940674 35.75065l13.301819 24.110245l-8.314941 29.099731l9.976379 16.627304l4.1574707 19.952744l-6.65094 18.291351l-10.80835 17.45932l-0.83203125 10.80838l4.989502 6.65094l-9.976379 -4.1548767l-23.280884 4.1548767l-16.627258 4.989502l-6.65094 24.94223l-35.75067 10.808411l-39.90811 -15.797882l-23.278229 19.123352l-29.931732 -4.989502l43.23358 -44.06299l17.45932 7.4829407l5.8189087 -24.94226l18.29132 -24.94226l23.280823 -11.640427l15.795288 -27.4357l-4.1574707 -29.099731l2.4960938 -39.908142l14.13385 -19.952751l-1.6640625 -39.07611l-4.9868774 -25.77428l4.9868774 -15.797901z" fill-rule="evenodd"/><path stroke="#d9d9d9" stroke-width="2.0" stroke-linejoin="round" stroke-linecap="butt" d="m637.6903 73.16273l4.989502 19.12336l-19.955383 23.280846l-0.82940674 35.75065l13.301819 24.110245l-8.314941 29.099731l9.976379 16.627304l4.1574707 19.952744l-6.65094 18.291351l-10.80835 17.45932l-0.83203125 10.80838l4.989502 6.65094l-9.976379 -4.1548767l-23.280884 4.1548767l-16.627258 4.989502l-6.65094 24.94223l-35.75067 10.808411l-39.90811 -15.797882l-23.278229 19.123352l-29.931732 -4.989502l43.23358 -44.06299l17.45932 7.4829407l5.8189087 -24.94226l18.29132 -24.94226l23.280823 -11.640427l15.795288 -27.4357l-4.1574707 -29.099731l2.4960938 -39.908142l14.13385 -19.952751l-1.6640625 -39.07611l-4.9868774 -25.77428l4.9868774 -15.797901z" fill-rule="evenodd"/><path fill="#d9d9d9" d="m-8.3149605 -4.1574802l980.22046 0l0 729.13385l-980.22046 0z" fill-rule="evenodd"/><path stroke="#cccccc" stroke-width="2.0" stroke-linejoin="round" stroke-linecap="butt" d="m-8.3149605 -4.1574802l980.22046 0l0 729.13385l-980.22046 0z" fill-rule="evenodd"/><path fill="#d9d9d9" d="m521.29395 19.12336l54.041992 13.301838l70.66931 37.412075l55.70343 12.472435l37.414673 26.603676l44.89502 33.257225l36.582703 22.448807l26.603638 35.750656l40.740173 26.603683l26.603699 35.75064l4.1574707 29.931763l-5.8189087 45.72705l-16.62732 34.089233l-35.75061 39.07611l-64.8504 22.446198l-61.524963 6.6509094l-55.70343 -5.818878l-29.931763 10.80838l-26.603638 36.582672l4.154846 29.099762l0 36.580048l-42.40155 15.797913l-22.446228 6.650879l-64.85037 -4.1574707l-48.223114 0l-49.05249 -26.603638l-42.40158 11.637756l-24.94226 19.955383l-17.45929 13.301819l-17.45932 26.606323l-22.448822 17.45935l-12.469818 19.952698l-4.157501 19.952759l-23.280823 25.774292l-9.976379 10.808411l-35.750656 3.3254395l32.4252 -80.64563l-19.123367 -24.94226l-19.952759 0l-9.976379 1.661377l-13.304459 -9.144348l-14.963257 -3.3254395l-7.4829407 -9.976379l-11.640411 -6.65094l-17.45932 -2.4960327l-15.797897 -10.808411l-11.6377945 -2.4934082l-9.979004 -13.30188l2.4960632 -16.629883l8.312332 -20.78479l12.472443 -4.9868774l19.12336 -8.314972l30.761154 -23.278229l19.123367 -11.640411l29.097107 -2.4960632l24.112854 7.4829407l19.120743 4.989502l23.280823 14.13385l14.133881 2.4934387l16.627289 -11.637787l10.808411 -13.304443l-6.65094 -10.808411l-21.61679 -14.963257l-33.257217 -12.472443l-59.02887 -25.774292l-32.4252 -29.929108l-57.367447 -29.931763l-0.8320236 -23.278229l-12.469818 -39.07611l11.640419 -24.94226l19.120735 -30.763779l54.874016 -22.448822l28.267715 -34.918625l47.391083 -24.94226l29.097107 -36.580055l43.233612 -14.965874l34.91861 -24.110237l54.041992 -9.146984l27.438324 -18.291336l28.26773 -4.9868774l33.254578 -5.8215218l24.112885 -5.818899z" fill-rule="evenodd"/><path stroke="#d9d9d9" stroke-width="2.0" stroke-linejoin="round" stroke-linecap="butt" d="m521.29395 19.12336l54.041992 13.301838l70.66931 37.412075l55.70343 12.472435l37.414673 26.603676l44.89502 33.257225l36.582703 22.448807l26.603638 35.750656l40.740173 26.603683l26.603699 35.75064l4.1574707 29.931763l-5.8189087 45.72705l-16.62732 34.089233l-35.75061 39.07611l-64.8504 22.446198l-61.524963 6.6509094l-55.70343 -5.818878l-29.931763 10.80838l-26.603638 36.582672l4.154846 29.099762l0 36.580048l-42.40155 15.797913l-22.446228 6.650879l-64.85037 -4.1574707l-48.223114 0l-49.05249 -26.603638l-42.40158 11.637756l-24.94226 19.955383l-17.45929 13.301819l-17.45932 26.606323l-22.448822 17.45935l-12.469818 19.952698l-4.157501 19.952759l-23.280823 25.774292l-9.976379 10.808411l-35.750656 3.3254395l32.4252 -80.64563l-19.123367 -24.94226l-19.952759 0l-9.976379 1.661377l-13.304459 -9.144348l-14.963257 -3.3254395l-7.4829407 -9.976379l-11.640411 -6.65094l-17.45932 -2.4960327l-15.797897 -10.808411l-11.6377945 -2.4934082l-9.979004 -13.30188l2.4960632 -16.629883l8.312332 -20.78479l12.472443 -4.9868774l19.12336 -8.314972l30.761154 -23.278229l19.123367 -11.640411l29.097107 -2.4960632l24.112854 7.4829407l19.120743 4.989502l23.280823 14.13385l14.133881 2.4934387l16.627289 -11.637787l10.808411 -13.304443l-6.65094 -10.808411l-21.61679 -14.963257l-33.257217 -12.472443l-59.02887 -25.774292l-32.4252 -29.929108l-57.367447 -29.931763l-0.8320236 -23.278229l-12.469818 -39.07611l11.640419 -24.94226l19.120735 -30.763779l54.874016 -22.448822l28.267715 -34.918625l47.391083 -24.94226l29.097107 -36.580055l43.233612 -14.965874l34.91861 -24.110237l54.041992 -9.146984l27.438324 -18.291336l28.26773 -4.9868774l33.254578 -5.8215218l24.112885 -5.818899z" fill-rule="evenodd"/><path fill="#fff2cc" d="m311.77954 92.28609l5.818878 51.548553l-8.314941 21.616806l-24.94226 25.771652l8.314941 44.89763l19.123383 23.278229l-74.82678 47.391083l-3.3280945 18.29132l-15.795273 16.627289l54.871384 41.56958l31.595825 12.472443l19.120728 21.61679l13.304443 4.989502l-19.955353 14.13385l-9.144379 21.614166l-9.146973 -4.154846l-14.965881 -13.304474l-98.93701 -43.230957l-34.918625 -31.595795l-58.19948 -28.26773l0.832016 -34.08661l-11.640419 -28.26773l29.09974 -53.20996l54.87401 -20.784775l28.26773 -38.24672l45.72702 -20.784775l29.931763 -37.41208z" fill-rule="evenodd"/><path stroke="#d9d9d9" stroke-width="2.0" stroke-linejoin="round" stroke-linecap="butt" d="m311.77954 92.28609l5.818878 51.548553l-8.314941 21.616806l-24.94226 25.771652l8.314941 44.89763l19.123383 23.278229l-74.82678 47.391083l-3.3280945 18.29132l-15.795273 16.627289l54.871384 41.56958l31.595825 12.472443l19.120728 21.61679l13.304443 4.989502l-19.955353 14.13385l-9.144379 21.614166l-9.146973 -4.154846l-14.965881 -13.304474l-98.93701 -43.230957l-34.918625 -31.595795l-58.19948 -28.26773l0.832016 -34.08661l-11.640419 -28.26773l29.09974 -53.20996l54.87401 -20.784775l28.26773 -38.24672l45.72702 -20.784775l29.931763 -37.41208z" fill-rule="evenodd"/><path fill="#00ffff" d="m318.43045 89.79265l6.6509094 54.8714l-11.640411 26.606293l-19.123352 19.123367l7.4829407 43.230957l19.955383 28.270355l-72.33334 43.230957l-10.808411 27.438324l-9.976364 6.6509094l49.884506 39.908142l30.76117 8.312347l5.8215027 14.965881l24.11023 14.13385l8.312347 -33.257202l30.763794 0l24.11023 -25.771667l-1.661438 -44.897644l9.144379 -2.4934387l-21.61679 -53.20996l13.301819 -27.4357l27.438324 -20.7874l5.8189087 -15.795273l-4.989502 -20.78479l41.572174 -19.123352l9.976379 0.832016l-16.627289 -42.401573l-1.6640625 -14.965874l16.627289 -16.627296l14.133881 -1.6640472l2.4960632 -14.965878l-14.965881 -27.435696l-20.78479 -3.3254585l-39.908142 7.4829407l-20.78476 19.120731l-57.367462 7.4829407z" fill-rule="evenodd"/><path stroke="#d9d9d9" stroke-width="2.0" stroke-linejoin="round" stroke-linecap="butt" d="m318.43045 89.79265l6.6509094 54.8714l-11.640411 26.606293l-19.123352 19.123367l7.4829407 43.230957l19.955383 28.270355l-72.33334 43.230957l-10.808411 27.438324l-9.976364 6.6509094l49.884506 39.908142l30.76117 8.312347l5.8215027 14.965881l24.11023 14.13385l8.312347 -33.257202l30.763794 0l24.11023 -25.771667l-1.661438 -44.897644l9.144379 -2.4934387l-21.61679 -53.20996l13.301819 -27.4357l27.438324 -20.7874l5.8189087 -15.795273l-4.989502 -20.78479l41.572174 -19.123352l9.976379 0.832016l-16.627289 -42.401573l-1.6640625 -14.965874l16.627289 -16.627296l14.133881 -1.6640472l2.4960632 -14.965878l-14.965881 -27.435696l-20.78479 -3.3254585l-39.908142 7.4829407l-20.78476 19.120731l-57.367462 7.4829407z" fill-rule="evenodd"/><path fill="#00ff00" d="m409.0525 352.51706l-2.4934387 -35.75064l11.640411 -2.4934387l-4.1574707 -27.4357l-18.29132 -28.270355l10.80838 -21.614166l19.952759 -19.955383l9.146973 0l5.8189087 -23.278214l-3.32547 -16.629929l24.11026 -13.301834l24.94223 -1.6614075l-2.4934387 -26.606308l-15.797882 -29.931755l8.314941 -16.627296l21.616821 -6.6509247l3.3254395 -20.784775l-14.13385 -27.43832l22.448822 -12.469814l62.35434 14.133858l-6.65094 17.459316l6.65094 66.51181l-19.120728 23.280838l5.8189087 62.354324l-10.808411 22.448822l-28.267761 16.627304l-17.45929 24.112854l-4.1574707 19.952759l-23.278229 -5.8189087l-40.740143 52.37796l-3.32547 10.808411z" fill-rule="evenodd"/><path stroke="#d9d9d9" stroke-width="2.0" stroke-linejoin="round" stroke-linecap="butt" d="m409.0525 352.51706l-2.4934387 -35.75064l11.640411 -2.4934387l-4.1574707 -27.4357l-18.29132 -28.270355l10.80838 -21.614166l19.952759 -19.955383l9.146973 0l5.8189087 -23.278214l-3.32547 -16.629929l24.11026 -13.301834l24.94223 -1.6614075l-2.4934387 -26.606308l-15.797882 -29.931755l8.314941 -16.627296l21.616821 -6.6509247l3.3254395 -20.784775l-14.13385 -27.43832l22.448822 -12.469814l62.35434 14.133858l-6.65094 17.459316l6.65094 66.51181l-19.120728 23.280838l5.8189087 62.354324l-10.808411 22.448822l-28.267761 16.627304l-17.45929 24.112854l-4.1574707 19.952759l-23.278229 -5.8189087l-40.740143 52.37796l-3.32547 10.808411z" fill-rule="evenodd"/><path fill="#ffff00" d="m648.49866 439.81628l-10.80835 -14.965881l-4.9868774 -19.955383l-4.989502 -19.952759l11.640381 -17.45932l-7.48291 -11.640411l-3.3254395 -14.965881l8.314941 -11.637817l-3.328064 -9.978973l1.6640015 -27.4357l-6.650879 -6.65094l4.1574707 -15.797882l13.301819 -17.45932l-0.83203125 -30.761154l-11.640381 -23.280853l4.1574707 -31.59317l-9.976379 -18.291336l0.83203125 -32.42257l17.45929 -22.448822l-2.4934082 -17.45932l57.36743 9.144356l118.05774 84.80315l23.280823 27.438324l10.808411 11.637802l23.278198 13.304459l14.13385 7.4829407l16.629944 24.11023l5.8189087 18.291351l5.8189087 21.61679l-6.65094 35.75064l-14.13385 39.07614l-39.905518 42.40155l-59.863525 19.952759l-61.522278 8.314972l-59.863525 -4.989502z" fill-rule="evenodd"/><path stroke="#d9d9d9" stroke-width="2.0" stroke-linejoin="round" stroke-linecap="butt" d="m648.49866 439.81628l-10.80835 -14.965881l-4.9868774 -19.955383l-4.989502 -19.952759l11.640381 -17.45932l-7.48291 -11.640411l-3.3254395 -14.965881l8.314941 -11.637817l-3.328064 -9.978973l1.6640015 -27.4357l-6.650879 -6.65094l4.1574707 -15.797882l13.301819 -17.45932l-0.83203125 -30.761154l-11.640381 -23.280853l4.1574707 -31.59317l-9.976379 -18.291336l0.83203125 -32.42257l17.45929 -22.448822l-2.4934082 -17.45932l57.36743 9.144356l118.05774 84.80315l23.280823 27.438324l10.808411 11.637802l23.278198 13.304459l14.13385 7.4829407l16.629944 24.11023l5.8189087 18.291351l5.8189087 21.61679l-6.65094 35.75064l-14.13385 39.07614l-39.905518 42.40155l-59.863525 19.952759l-61.522278 8.314972l-59.863525 -4.989502z" fill-rule="evenodd"/><path fill="#9900ff" d="m618.56696 294.3176l-33.25464 7.4829407l-12.472412 25.774261l-16.62732 6.6509094l-24.11023 4.157501l-24.112854 -11.640442l-16.627289 -3.3254395l-16.62732 15.797882l-29.931732 -0.83200073l-27.4357 18.29132l-23.280853 10.808411l-14.13385 18.291351l-29.097107 4.9868774l-10.808411 31.595795l-18.29132 13.301819l-5.821533 11.640442l-7.4829407 14.963257l-7.480316 4.1574707l11.637787 26.606293l13.304474 14.13385l23.278198 14.965881l19.952759 7.4803467l21.616821 3.3254395l19.123352 5.821533l36.582672 22.448792l17.45932 0l25.774261 -7.48291l44.89505 12.469788l24.94226 0l64.01837 -22.448792l-2.4934692 -55.70343l-4.1574707 -11.640411l29.099731 -29.929138l-14.965881 -17.45932l-11.640442 -41.572174l9.976379 -20.78479l-10.80835 -25.774261l9.979004 -12.469818l-0.83203125 -28.26773z" fill-rule="evenodd"/><path stroke="#d9d9d9" stroke-width="2.0" stroke-linejoin="round" stroke-linecap="butt" d="m618.56696 294.3176l-33.25464 7.4829407l-12.472412 25.774261l-16.62732 6.6509094l-24.11023 4.157501l-24.112854 -11.640442l-16.627289 -3.3254395l-16.62732 15.797882l-29.931732 -0.83200073l-27.4357 18.29132l-23.280853 10.808411l-14.13385 18.291351l-29.097107 4.9868774l-10.808411 31.595795l-18.29132 13.301819l-5.821533 11.640442l-7.4829407 14.963257l-7.480316 4.1574707l11.637787 26.606293l13.304474 14.13385l23.278198 14.965881l19.952759 7.4803467l21.616821 3.3254395l19.123352 5.821533l36.582672 22.448792l17.45932 0l25.774261 -7.48291l44.89505 12.469788l24.94226 0l64.01837 -22.448792l-2.4934692 -55.70343l-4.1574707 -11.640411l29.099731 -29.929138l-14.965881 -17.45932l-11.640442 -41.572174l9.976379 -20.78479l-10.80835 -25.774261l9.979004 -12.469818l-0.83203125 -28.26773z" fill-rule="evenodd"/><path fill="#ff00ff" d="m345.03412 528.7769l-3.1102295 17.648254l-12.380585 11.430481l-15.236206 6.666687l-14.286102 -0.9527588l-12.380585 -6.666687l-14.286072 -7.619446l-12.380585 -12.380554l-0.9527588 -19.047241l-0.9527588 -11.43045l-4.761154 -15.236237l-3.81102 -14.286072l-8.572174 -9.524933l-1.9028931 -11.427826l1.9028931 -10.477692l2.858261 -5.7138977l1.9055176 -7.619446l12.380569 2.8582764l13.3333435 7.6194153l11.427826 5.713928l8.572174 8.572174l3.8083801 7.6194153l2.8582764 12.380585l2.8556519 14.286072l8.191589 11.81366l9.976379 7.4829407z" fill-rule="evenodd"/><path stroke="#d9d9d9" stroke-width="2.0" stroke-linejoin="round" stroke-linecap="butt" d="m345.03412 528.7769l-3.1102295 17.648254l-12.380585 11.430481l-15.236206 6.666687l-14.286102 -0.9527588l-12.380585 -6.666687l-14.286072 -7.619446l-12.380585 -12.380554l-0.9527588 -19.047241l-0.9527588 -11.43045l-4.761154 -15.236237l-3.81102 -14.286072l-8.572174 -9.524933l-1.9028931 -11.427826l1.9028931 -10.477692l2.858261 -5.7138977l1.9055176 -7.619446l12.380569 2.8582764l13.3333435 7.6194153l11.427826 5.713928l8.572174 8.572174l3.8083801 7.6194153l2.8582764 12.380585l2.8556519 14.286072l8.191589 11.81366l9.976379 7.4829407z" fill-rule="evenodd"/><path fill="#ff810a" d="m637.68896 73.161415l4.989502 19.12336l-19.955383 23.280846l-0.82940674 35.75065l13.30188 24.110245l-8.315002 29.099731l9.976379 16.627304l4.1575317 19.952744l-6.65094 18.291351l-10.808411 17.45932l-0.83203125 10.80838l4.989502 6.65094l-9.976379 -4.1548767l-23.280823 4.1548767l-16.62732 4.989502l-6.650879 24.94223l-35.75067 10.808411l-39.908142 -15.797882l-23.278229 19.123352l-29.931732 -4.989502l43.23358 -44.06299l17.45932 7.4829407l5.8189087 -24.94226l18.291351 -24.94226l23.280823 -11.640427l15.795288 -27.4357l-4.1574707 -29.099731l2.4960327 -39.908142l14.13385 -19.952751l-1.6640625 -39.07611l-4.9868164 -25.77428l4.9868164 -15.797901z" fill-rule="evenodd"/><path stroke="#d9d9d9" stroke-width="2.0" stroke-linejoin="round" stroke-linecap="butt" d="m637.68896 73.161415l4.989502 19.12336l-19.955383 23.280846l-0.82940674 35.75065l13.30188 24.110245l-8.315002 29.099731l9.976379 16.627304l4.1575317 19.952744l-6.65094 18.291351l-10.808411 17.45932l-0.83203125 10.80838l4.989502 6.65094l-9.976379 -4.1548767l-23.280823 4.1548767l-16.62732 4.989502l-6.650879 24.94223l-35.75067 10.808411l-39.908142 -15.797882l-23.278229 19.123352l-29.931732 -4.989502l43.23358 -44.06299l17.45932 7.4829407l5.8189087 -24.94226l18.291351 -24.94226l23.280823 -11.640427l15.795288 -27.4357l-4.1574707 -29.099731l2.4960327 -39.908142l14.13385 -19.952751l-1.6640625 -39.07611l-4.9868164 -25.77428l4.9868164 -15.797901z" fill-rule="evenodd"/></g></svg>