<svg version="1.1" viewBox="0.0 0.0 960.0 720.0" fill="none" stroke="none" stroke-linecap="square" stroke-miterlimit="10" xmlns:xlink="http://www.w3.org/1999/xlink" xmlns="http://www.w3.org/2000/svg"><clipPath id="p.0"><path d="m0 0l960.0 0l0 720.0l-960.0 0l0 -720.0z" clip-rule="nonzero"/></clipPath><g clip-path="url(#p.0)"><path fill="#000000" fill-opacity="0.0" d="m0 0l960.0 0l0 720.0l-960.0 0z" fill-rule="evenodd"/><path fill="#d9d9d9" d="m521.29395 19.12336l54.041992 13.301838l70.66931 37.412075l55.70343 12.472435l37.414673 26.603676l44.89502 33.257225l36.582703 22.448807l26.603638 35.750656l40.740173 26.603683l26.603699 35.75064l4.1574707 29.931763l-5.8189087 45.72705l-16.62732 34.089233l-35.75061 39.07611l-64.8504 22.446198l-61.524963 6.6509094l-55.70343 -5.818878l-29.931763 10.80838l-26.603638 36.582672l4.154846 29.099762l0 36.580048l-42.40155 15.797913l-22.446228 6.650879l-64.85037 -4.1574707l-48.223114 0l-49.05249 -26.603638l-42.40158 11.637756l-24.94226 19.955383l-17.45929 13.301819l-17.45932 26.606323l-22.448822 17.45935l-12.469818 19.952698l-4.157501 19.952759l-23.280823 25.774292l-9.976379 10.808411l-35.750656 3.3254395l4.6246643 -8.314941l9.522324 -11.427795l9.524933 -7.619446l6.6666565 -12.380554l8.572189 -6.666687l1.9028778 -4.763794l0.9527588 -8.569519l3.81102 -13.333374l16.18898 -25.716492l-6.6666718 14.286072l11.427826 -25.713928l3.81102 -12.380554l-3.81102 -16.19159l-3.8083954 -19.047241l-7.6194305 -15.236267l-12.380569 -10.477661l-14.286087 -9.522339l-16.18898 -9.524902l-8.572174 -8.572205l-2.8582764 -12.380554l1.9055176 -10.475067l-13.3333435 -13.3333435l5.713913 -13.3333435l-2.8556366 -21.905487l4.761154 -8.572205l4.761154 -6.6666565l9.524933 0l-10.477692 -7.6194153l-10.790024 -4.656189l-32.4252 -29.929108l-57.367447 -29.931763l-0.8320236 -23.278229l-12.469818 -39.07611l11.640419 -24.94226l19.120735 -30.763779l54.874016 -22.448822l28.267715 -34.918625l47.391083 -24.94226l29.097107 -36.580055l43.233612 -14.965874l34.91861 -24.110237l54.041992 -9.146984l27.438324 -18.291336l28.26773 -4.9868774l33.254578 -5.8215218l24.112885 -5.818899z" fill-rule="evenodd"/><path stroke="#d9d9d9" stroke-width="2.0" stroke-linejoin="round" stroke-linecap="butt" d="m521.29395 19.12336l54.041992 13.301838l70.66931 37.412075l55.70343 12.472435l37.414673 26.603676l44.89502 33.257225l36.582703 22.448807l26.603638 35.750656l40.740173 26.603683l26.603699 35.75064l4.1574707 29.931763l-5.8189087 45.72705l-16.62732 34.089233l-35.75061 39.07611l-64.8504 22.446198l-61.524963 6.6509094l-55.70343 -5.818878l-29.931763 10.80838l-26.603638 36.582672l4.154846 29.099762l0 36.580048l-42.40155 15.797913l-22.446228 6.650879l-64.85037 -4.1574707l-48.223114 0l-49.05249 -26.603638l-42.40158 11.637756l-24.94226 19.955383l-17.45929 13.301819l-17.45932 26.606323l-22.448822 17.45935l-12.469818 19.952698l-4.157501 19.952759l-23.280823 25.774292l-9.976379 10.808411l-35.750656 3.3254395l4.6246643 -8.314941l9.522324 -11.427795l9.524933 -7.619446l6.6666565 -12.380554l8.572189 -6.666687l1.9028778 -4.763794l0.9527588 -8.569519l3.81102 -13.333374l16.18898 -25.716492l-6.6666718 14.286072l11.427826 -25.713928l3.81102 -12.380554l-3.81102 -16.19159l-3.8083954 -19.047241l-7.6194305 -15.236267l-12.380569 -10.477661l-14.286087 -9.522339l-16.18898 -9.524902l-8.572174 -8.572205l-2.8582764 -12.380554l1.9055176 -10.475067l-13.3333435 -13.3333435l5.713913 -13.3333435l-2.8556366 -21.905487l4.761154 -8.572205l4.761154 -6.6666565l9.524933 0l-10.477692 -7.6194153l-10.790024 -4.656189l-32.4252 -29.929108l-57.367447 -29.931763l-0.8320236 -23.278229l-12.469818 -39.07611l11.640419 -24.94226l19.120735 -30.763779l54.874016 -22.448822l28.267715 -34.918625l47.391083 -24.94226l29.097107 -36.580055l43.233612 -14.965874l34.91861 -24.110237l54.041992 -9.146984l27.438324 -18.291336l28.26773 -4.9868774l33.254578 -5.8215218l24.112885 -5.818899z" fill-rule="evenodd"/></g></svg>