<svg version="1.1" viewBox="0.0 0.0 960.0 720.0" fill="none" stroke="none" stroke-linecap="square" stroke-miterlimit="10" xmlns:xlink="http://www.w3.org/1999/xlink" xmlns="http://www.w3.org/2000/svg"><clipPath id="p.0"><path d="m0 0l960.0 0l0 720.0l-960.0 0l0 -720.0z" clip-rule="nonzero"/></clipPath><g clip-path="url(#p.0)"><path fill="#000000" fill-opacity="0.0" d="m0 0l960.0 0l0 720.0l-960.0 0z" fill-rule="evenodd"/><defs><radialGradient id="p.1" gradientUnits="userSpaceOnUse" gradientTransform="matrix(18.639344297477177 0.0 0.0 18.639344297477177 0.0 0.0)" spreadMethod="pad" cx="25.71621220593102" cy="23.12425751122943" fx="25.71621220593102" fy="23.12425751122943" r="18.639345169067383"><stop offset="0.0" stop-color="#dbd4eb"/><stop offset="1.0" stop-color="#9080bb"/></radialGradient></defs><path fill="url(#p.1)" d="m289.47507 140.06036l379.71652 0l0 581.92126l-379.71652 0z" fill-rule="evenodd"/><path stroke="#000000" stroke-width="1.0" stroke-linejoin="round" stroke-linecap="butt" d="m289.47507 140.06036l379.71652 0l0 581.92126l-379.71652 0z" fill-rule="evenodd"/><g filter="url(#shadowFilter-p.2)"><use xlink:href="#p.2" transform="matrix(1.0 0.0 0.0 1.0 0.0 3.0)"/></g><defs><filter id="shadowFilter-p.2" filterUnits="userSpaceOnUse"><feGaussianBlur in="SourceAlpha" stdDeviation="0.5" result="blur"/><feComponentTransfer in="blur" color-interpolation-filters="sRGB"><feFuncR type="linear" slope="0" intercept="0.0"/><feFuncG type="linear" slope="0" intercept="0.0"/><feFuncB type="linear" slope="0" intercept="0.0"/><feFuncA type="linear" slope="1.0" intercept="0"/></feComponentTransfer></filter></defs><g id="p.2"><path fill="#d9d9d9" d="m289.47507 0l379.71652 0l0 140.06299l-379.71652 0z" fill-rule="evenodd"/><path stroke="#000000" stroke-width="1.0" stroke-linejoin="round" stroke-linecap="butt" d="m289.47507 0l379.71652 0l0 140.06299l-379.71652 0z" fill-rule="evenodd"/></g><path fill="#000000" fill-opacity="0.0" d="m315.77692 18.414698l328.75592 0l0 95.338585l-328.75592 0z" fill-rule="evenodd"/><path fill="#000000" d="m351.82175 70.420235l0 -4.59375l16.5625 -0.03125l0 14.53125q-3.8125 3.03125 -7.875 4.578125q-4.046875 1.53125 -8.328125 1.53125q-5.75 0 -10.46875 -2.46875q-4.703125 -2.46875 -7.109375 -7.140625q-2.40625 -4.671875 -2.40625 -10.4375q0 -5.718746 2.390625 -10.656246q2.390625 -4.953125 6.875 -7.359375q4.484375 -2.40625 10.328125 -2.40625q4.234375 0 7.65625 1.375q3.4375 1.375 5.390625 3.84375q1.953125 2.453125 2.96875 6.390625l-4.671875 1.28125q-0.890625 -2.984375 -2.203125 -4.6875q-1.296875 -1.71875 -3.734375 -2.734375q-2.421875 -1.03125 -5.375 -1.03125q-3.5625 0 -6.15625 1.078125q-2.578125 1.078125 -4.171875 2.84375q-1.578125 1.765625 -2.46875 3.875q-1.484375 3.625 -1.484375 7.859371q0 5.234375 1.796875 8.765625q1.796875 3.515625 5.234375 5.234375q3.453125 1.703125 7.328125 1.703125q3.359375 0 6.5625 -1.296875q3.203125 -1.296875 4.859375 -2.765625l0 -7.28125l-11.5 0zm42.982147 6.21875l4.96875 0.609375q-1.171875 4.359375 -4.359375 6.765625q-3.171875 2.390625 -8.109375 2.390625q-6.21875 0 -9.859375 -3.828125q-3.640625 -3.828125 -3.640625 -10.75q0 -7.140625 3.6875 -11.093746q3.6875 -3.953125 9.546875 -3.953125q5.6875 0 9.28125 3.875q3.609375 3.8593712 3.609375 10.890621q0 0.421875 -0.015625 1.28125l-21.140625 0q0.265625 4.671875 2.640625 7.15625q2.375 2.46875 5.921875 2.46875q2.640625 0 4.5 -1.375q1.875 -1.390625 2.96875 -4.4375zm-15.765625 -7.765625l15.828125 0q-0.328125 -3.578125 -1.8125 -5.359371q-2.296875 -2.78125 -5.953125 -2.78125q-3.3125 0 -5.578125 2.21875q-2.25 2.2031212 -2.484375 5.921871zm37.25656 12.59375l0.6875 4.25q-2.03125 0.421875 -3.625 0.421875q-2.609375 0 -4.0625 -0.828125q-1.4375 -0.828125 -2.03125 -2.171875q-0.578125 -1.34375 -0.578125 -5.671875l0 -16.312496l-3.53125 0l0 -3.734375l3.53125 0l0 -7.015625l4.78125 -2.890625l0 9.90625l4.828125 0l0 3.734375l-4.828125 0l0 16.578121q0 2.046875 0.25 2.640625q0.25 0.59375 0.828125 0.9375q0.578125 0.34375 1.640625 0.34375q0.796875 0 2.109375 -0.1875zm29.46103 4.296875l0 -34.499996l-12.890625 0l0 -4.625l31.015625 0l0 4.625l-12.953125 0l0 34.499996l-5.171875 0zm14.96759 -14.171875q0 -7.874996 4.375 -11.656246q3.65625 -3.15625 8.921875 -3.15625q5.84375 0 9.546875 3.828125q3.71875 3.8281212 3.71875 10.578121q0 5.484375 -1.640625 8.625q-1.640625 3.125 -4.78125 4.859375q-3.140625 1.734375 -6.84375 1.734375q-5.953125 0 -9.625 -3.8125q-3.671875 -3.8125 -3.671875 -11.0zm4.9375 0q0 5.4375 2.375 8.15625q2.375 2.703125 5.984375 2.703125q3.578125 0 5.953125 -2.71875q2.375 -2.71875 2.375 -8.296875q0 -5.265625 -2.390625 -7.968746q-2.390625 -2.703125 -5.9375 -2.703125q-3.609375 0 -5.984375 2.703125q-2.375 2.6874962 -2.375 8.124996zm49.879333 14.171875l-10.375 -39.124996l5.3125 0l5.9375 25.640621q0.96875 4.03125 1.65625 8.015625q1.5 -6.28125 1.765625 -7.234375l7.453125 -26.421871l6.234375 0l5.609375 19.796871q2.109375 7.375 3.046875 13.859375q0.75 -3.71875 1.9375 -8.515625l6.140625 -25.140621l5.203125 0l-10.71875 39.124996l-5.0 0l-8.234375 -29.812496q-1.046875 -3.734375 -1.234375 -4.59375q-0.609375 2.703125 -1.15625 4.59375l-8.296875 29.812496l-5.28125 0zm41.365173 -14.171875q0 -7.874996 4.375 -11.656246q3.65625 -3.15625 8.921875 -3.15625q5.84375 0 9.546875 3.828125q3.71875 3.8281212 3.71875 10.578121q0 5.484375 -1.640625 8.625q-1.640625 3.125 -4.78125 4.859375q-3.140625 1.734375 -6.84375 1.734375q-5.953125 0 -9.625 -3.8125q-3.671875 -3.8125 -3.671875 -11.0zm4.9375 0q0 5.4375 2.375 8.15625q2.375 2.703125 5.984375 2.703125q3.578125 0 5.953125 -2.71875q2.375 -2.71875 2.375 -8.296875q0 -5.265625 -2.390625 -7.968746q-2.390625 -2.703125 -5.9375 -2.703125q-3.609375 0 -5.984375 2.703125q-2.375 2.6874962 -2.375 8.124996zm27.194092 14.171875l0 -28.343746l4.328125 0l0 4.296875q1.65625 -3.015625 3.046875 -3.96875q1.40625 -0.96875 3.09375 -0.96875q2.421875 0 4.9375 1.546875l-1.65625 4.453125q-1.765625 -1.03125 -3.53125 -1.03125q-1.5625 0 -2.828125 0.953125q-1.25 0.9375 -1.78125 2.6249962q-0.796875 2.5625 -0.796875 5.59375l0 14.84375l-4.8125 0zm18.279053 0l0 -39.124996l4.8125 0l0 22.312496l11.359375 -11.531246l6.21875 0l-10.828125 10.515621l11.921875 17.828125l-5.921875 0l-9.359375 -14.484375l-3.390625 3.25l0 11.234375l-4.8125 0z" fill-rule="nonzero"/><path fill="#f3f3f3" d="m305.9134 161.43045l184.12598 0l0 57.543304l-184.12598 0z" fill-rule="evenodd"/><path stroke="#000000" stroke-width="1.0" stroke-linejoin="round" stroke-linecap="butt" d="m305.9134 161.43045l184.12598 0l0 57.543304l-184.12598 0z" fill-rule="evenodd"/><path fill="#000000" d="m381.34763 197.1221l5.125 -13.359375l1.90625 0l5.46875 13.359375l-2.015625 0l-1.546875 -4.046875l-5.59375 0l-1.46875 4.046875l-1.875 0zm3.859375 -5.484375l4.53125 0l-1.40625 -3.703125q-0.625 -1.6875 -0.9375 -2.765625q-0.265625 1.28125 -0.71875 2.546875l-1.46875 3.921875zm9.974823 5.484375l0 -13.359375l1.78125 0l0 11.78125l6.5625 0l0 1.578125l-8.34375 0zm10.375732 0l0 -13.359375l1.78125 0l0 11.78125l6.5625 0l0 1.578125l-8.34375 0z" fill-rule="nonzero"/><path fill="#b7b7b7" d="m445.88977 174.58005l34.11023 0l0 31.244095l-34.11023 0z" fill-rule="evenodd"/><path stroke="#000000" stroke-width="1.0" stroke-linejoin="round" stroke-linecap="butt" d="m445.88977 174.58005l34.11023 0l0 31.244095l-34.11023 0z" fill-rule="evenodd"/><path fill="#000000" d="m476.11023 182.78477l-13.165344 18.929138l-13.165344 -18.929138z" fill-rule="evenodd"/><path stroke="#000000" stroke-width="1.0" stroke-linejoin="round" stroke-linecap="butt" d="m476.11023 182.78477l-13.165344 18.929138l-13.165344 -18.929138z" fill-rule="evenodd"/><path fill="#f3f3f3" d="m305.9134 233.32283l348.5039 0l0 57.54332l-348.5039 0z" fill-rule="evenodd"/><path stroke="#000000" stroke-width="1.0" stroke-linejoin="round" stroke-linecap="butt" d="m305.9134 233.32283l348.5039 0l0 57.54332l-348.5039 0z" fill-rule="evenodd"/><path fill="#000000" d="m314.88214 269.0145l5.125 -13.35939l1.90625 0l5.46875 13.35939l-2.015625 0l-1.546875 -4.046875l-5.59375 0l-1.46875 4.046875l-1.875 0zm3.859375 -5.484375l4.53125 0l-1.40625 -3.703125q-0.625 -1.6875 -0.9375 -2.765625q-0.265625 1.28125 -0.71875 2.546875l-1.46875 3.921875zm9.974823 5.484375l0 -13.35939l1.78125 0l0 11.781265l6.5625 0l0 1.578125l-8.34375 0zm10.375702 0l0 -13.35939l1.78125 0l0 11.781265l6.5625 0l0 1.578125l-8.34375 0z" fill-rule="nonzero"/><path fill="#cc0000" d="m600.15485 262.09448l0 0c0 -12.706894 9.934326 -23.007874 22.188965 -23.007874l0 0c5.8848877 0 11.528748 2.4240417 15.690002 6.738861c4.161255 4.314804 6.4990234 10.166946 6.4990234 16.269012l0 0c0 12.706909 -9.934387 23.007874 -22.189026 23.007874l0 0c-12.254639 0 -22.188965 -10.300964 -22.188965 -23.007874zm34.388916 6.983856c2.9308472 -5.742401 1.9313354 -12.84433 -2.4533691 -17.431961c-4.3847656 -4.587631 -11.102356 -5.559906 -16.488586 -2.3864746zm-24.399841 -13.967712l0 0c-2.9309082 5.742401 -1.9313965 12.84436 2.4533691 17.431976c4.3847046 4.587616 11.102295 5.559906 16.488586 2.3864746z" fill-rule="evenodd"/><path fill="#6aa84f" d="m537.8869 264.95905l11.466064 -10.612518l10.614197 11.464569l29.573242 -27.371735l10.614197 11.464569l-41.039368 37.984253z" fill-rule="evenodd"/><path fill="#f3f3f3" d="m305.74802 311.5643l348.50394 0l0 57.543304l-348.50394 0z" fill-rule="evenodd"/><path stroke="#000000" stroke-width="1.0" stroke-linejoin="round" stroke-linecap="butt" d="m305.74802 311.5643l348.50394 0l0 57.543304l-348.50394 0z" fill-rule="evenodd"/><path fill="#000000" d="m314.71677 347.25595l5.125 -13.359375l1.90625 0l5.46875 13.359375l-2.015625 0l-1.546875 -4.046875l-5.59375 0l-1.46875 4.046875l-1.875 0zm3.859375 -5.484375l4.53125 0l-1.40625 -3.703125q-0.625 -1.6875 -0.9375 -2.765625q-0.265625 1.28125 -0.71875 2.546875l-1.46875 3.921875zm9.974823 5.484375l0 -13.359375l1.78125 0l0 11.78125l6.5625 0l0 1.578125l-8.34375 0zm10.375732 0l0 -13.359375l1.78125 0l0 11.78125l6.5625 0l0 1.578125l-8.34375 0z" fill-rule="nonzero"/><path fill="#cc0000" d="m599.9895 340.33597l0 0c0 -12.706909 9.934326 -23.007874 22.188965 -23.007874l0 0c5.8848877 0 11.528748 2.4240112 15.690002 6.7388306c4.161255 4.3148193 6.4989624 10.166962 6.4989624 16.269043l0 0c0 12.706879 -9.934326 23.007874 -22.188965 23.007874l0 0c-12.254639 0 -22.188965 -10.300995 -22.188965 -23.007874zm34.388855 6.983856c2.9309082 -5.742401 1.9313965 -12.84436 -2.453308 -17.431976c-4.3847656 -4.5876465 -11.102356 -5.559906 -16.488586 -2.3864746zm-24.39978 -13.967712l0 0c-2.9309082 5.742401 -1.9313965 12.84433 2.4533691 17.431946c4.3847046 4.5876465 11.102295 5.559906 16.488586 2.3864746z" fill-rule="evenodd"/><path fill="#6aa84f" d="m537.7215 343.20053l11.4661255 -10.612518l10.614136 11.464569l29.573303 -27.371735l10.614197 11.464569l-41.039368 37.984253z" fill-rule="evenodd"/><path fill="#f3f3f3" d="m305.9134 396.15485l348.5039 0l0 57.543304l-348.5039 0z" fill-rule="evenodd"/><path stroke="#000000" stroke-width="1.0" stroke-linejoin="round" stroke-linecap="butt" d="m305.9134 396.15485l348.5039 0l0 57.543304l-348.5039 0z" fill-rule="evenodd"/><path fill="#000000" d="m314.88214 431.8465l5.125 -13.359375l1.90625 0l5.46875 13.359375l-2.015625 0l-1.546875 -4.046875l-5.59375 0l-1.46875 4.046875l-1.875 0zm3.859375 -5.484375l4.53125 0l-1.40625 -3.703125q-0.625 -1.6875 -0.9375 -2.765625q-0.265625 1.28125 -0.71875 2.546875l-1.46875 3.921875zm9.974823 5.484375l0 -13.359375l1.78125 0l0 11.78125l6.5625 0l0 1.578125l-8.34375 0zm10.375702 0l0 -13.359375l1.78125 0l0 11.78125l6.5625 0l0 1.578125l-8.34375 0z" fill-rule="nonzero"/><path fill="#cc0000" d="m600.15485 424.9265l0 0c0 -12.706909 9.934326 -23.007874 22.188965 -23.007874l0 0c5.8848877 0 11.528748 2.4240417 15.690002 6.7388306c4.161255 4.3148193 6.4990234 10.166962 6.4990234 16.269043l0 0c0 12.706879 -9.934387 23.007874 -22.189026 23.007874l0 0c-12.254639 0 -22.188965 -10.300995 -22.188965 -23.007874zm34.388916 6.983856c2.9308472 -5.742401 1.9313354 -12.84436 -2.4533691 -17.431976c-4.3847656 -4.587616 -11.102356 -5.559906 -16.488586 -2.3864746zm-24.399841 -13.967712l0 0c-2.9309082 5.742401 -1.9313965 12.84433 2.4533691 17.431976c4.3847046 4.587616 11.102295 5.5598755 16.488586 2.386444z" fill-rule="evenodd"/><path fill="#6aa84f" d="m537.8869 427.79108l11.466064 -10.612518l10.614197 11.464569l29.573242 -27.371735l10.614197 11.464569l-41.039368 37.984253z" fill-rule="evenodd"/><path fill="#f3f3f3" d="m305.9134 477.76642l348.5039 0l0 57.543274l-348.5039 0z" fill-rule="evenodd"/><path stroke="#000000" stroke-width="1.0" stroke-linejoin="round" stroke-linecap="butt" d="m305.9134 477.76642l348.5039 0l0 57.543274l-348.5039 0z" fill-rule="evenodd"/><path fill="#000000" d="m314.88214 513.45807l5.125 -13.359375l1.90625 0l5.46875 13.359375l-2.015625 0l-1.546875 -4.046875l-5.59375 0l-1.46875 4.046875l-1.875 0zm3.859375 -5.484375l4.53125 0l-1.40625 -3.703125q-0.625 -1.6875 -0.9375 -2.765625q-0.265625 1.28125 -0.71875 2.546875l-1.46875 3.921875zm9.974823 5.484375l0 -13.359375l1.78125 0l0 11.78125l6.5625 0l0 1.578125l-8.34375 0zm10.375702 0l0 -13.359375l1.78125 0l0 11.78125l6.5625 0l0 1.578125l-8.34375 0z" fill-rule="nonzero"/><path fill="#cc0000" d="m600.15485 506.53806l0 0c0 -12.706909 9.934326 -23.007874 22.188965 -23.007874l0 0c5.8848877 0 11.528748 2.4240417 15.690002 6.738861c4.161255 4.3148193 6.4990234 10.166962 6.4990234 16.269012l0 0c0 12.706879 -9.934387 23.007904 -22.189026 23.007904l0 0c-12.254639 0 -22.188965 -10.301025 -22.188965 -23.007904zm34.388916 6.983856c2.9308472 -5.742401 1.9313354 -12.84433 -2.4533691 -17.431976c-4.3847656 -4.587616 -11.102356 -5.5598755 -16.488586 -2.386444zm-24.399841 -13.967712l0 0c-2.9309082 5.742401 -1.9313965 12.84436 2.4533691 17.431946c4.3847046 4.5876465 11.102295 5.5599365 16.488586 2.3864746z" fill-rule="evenodd"/><path fill="#6aa84f" d="m537.8869 509.40262l11.466064 -10.612518l10.614197 11.464569l29.573242 -27.371735l10.614197 11.464569l-41.039368 37.984222z" fill-rule="evenodd"/><path fill="#f3f3f3" d="m305.9134 556.3989l348.5039 0l0 57.543335l-348.5039 0z" fill-rule="evenodd"/><path stroke="#000000" stroke-width="1.0" stroke-linejoin="round" stroke-linecap="butt" d="m305.9134 556.3989l348.5039 0l0 57.543335l-348.5039 0z" fill-rule="evenodd"/><path fill="#000000" d="m314.88214 592.0906l5.125 -13.359375l1.90625 0l5.46875 13.359375l-2.015625 0l-1.546875 -4.046875l-5.59375 0l-1.46875 4.046875l-1.875 0zm3.859375 -5.484375l4.53125 0l-1.40625 -3.703125q-0.625 -1.6875 -0.9375 -2.765625q-0.265625 1.28125 -0.71875 2.546875l-1.46875 3.921875zm9.974823 5.484375l0 -13.359375l1.78125 0l0 11.78125l6.5625 0l0 1.578125l-8.34375 0zm10.375702 0l0 -13.359375l1.78125 0l0 11.78125l6.5625 0l0 1.578125l-8.34375 0z" fill-rule="nonzero"/><path fill="#cc0000" d="m600.15485 585.1706l0 0c0 -12.706909 9.934326 -23.007874 22.188965 -23.007874l0 0c5.8848877 0 11.528748 2.4240723 15.690002 6.7388306c4.161255 4.3148193 6.4990234 10.166992 6.4990234 16.269043l0 0c0 12.706909 -9.934387 23.007874 -22.189026 23.007874l0 0c-12.254639 0 -22.188965 -10.300964 -22.188965 -23.007874zm34.388916 6.9838867c2.9308472 -5.7424316 1.9313354 -12.84436 -2.4533691 -17.432007c-4.3847656 -4.5875854 -11.102356 -5.5598755 -16.488586 -2.3864746zm-24.399841 -13.967712l0 0c-2.9309082 5.7423706 -1.9313965 12.844299 2.4533691 17.431946c4.3847046 4.5876465 11.102295 5.5598755 16.488586 2.3864746z" fill-rule="evenodd"/><path fill="#6aa84f" d="m537.8869 588.03516l11.466064 -10.612488l10.614197 11.464539l29.573242 -27.371704l10.614197 11.464539l-41.039368 37.984253z" fill-rule="evenodd"/><path fill="#000000" fill-opacity="0.0" d="m315.77692 685.81366l230.14172 0" fill-rule="evenodd"/><path stroke="#000000" stroke-width="2.0" stroke-linejoin="round" stroke-linecap="butt" d="m315.77692 685.81366l230.14172 0" fill-rule="evenodd"/><path fill="#93c47d" d="m559.0656 643.3624l0 0c0 -5.6070557 4.54541 -10.152466 10.152466 -10.152466l74.87622 0c2.692566 0 5.2749023 1.0696411 7.178833 2.9735718c1.9039307 1.9039917 2.9735718 4.486267 2.9735718 7.178894l0 40.60852c0 5.6069946 -4.54541 10.152405 -10.152405 10.152405l-74.87622 0c-5.6070557 0 -10.152466 -4.54541 -10.152466 -10.152405z" fill-rule="evenodd"/><path fill="#000000" d="m586.9302 670.5867l5.125 -13.359375l1.90625 0l5.46875 13.359375l-2.015625 0l-1.546875 -4.046875l-5.59375 0l-1.46875 4.046875l-1.875 0zm3.859375 -5.484375l4.53125 0l-1.40625 -3.703125q-0.625 -1.6875 -0.9375 -2.765625q-0.265625 1.28125 -0.71875 2.546875l-1.46875 3.921875zm10.0529785 5.484375l0 -13.359375l4.609375 0q1.546875 0 2.375 0.203125q1.140625 0.25 1.953125 0.953125q1.0625 0.890625 1.578125 2.28125q0.53125 1.390625 0.53125 3.171875q0 1.515625 -0.359375 2.703125q-0.359375 1.171875 -0.921875 1.9375q-0.546875 0.765625 -1.203125 1.21875q-0.65625 0.4375 -1.59375 0.671875q-0.9375 0.21875 -2.140625 0.21875l-4.828125 0zm1.765625 -1.578125l2.859375 0q1.3125 0 2.0625 -0.234375q0.75 -0.25 1.203125 -0.703125q0.625 -0.625 0.96875 -1.6875q0.359375 -1.0625 0.359375 -2.578125q0 -2.09375 -0.6875 -3.21875q-0.6875 -1.125 -1.671875 -1.5q-0.703125 -0.28125 -2.28125 -0.28125l-2.8125 0l0 10.203125zm11.707275 1.578125l0 -13.359375l4.609375 0q1.546875 0 2.375 0.203125q1.140625 0.25 1.953125 0.953125q1.0625 0.890625 1.578125 2.28125q0.53125 1.390625 0.53125 3.171875q0 1.515625 -0.359375 2.703125q-0.359375 1.171875 -0.921875 1.9375q-0.546875 0.765625 -1.203125 1.21875q-0.65625 0.4375 -1.59375 0.671875q-0.9375 0.21875 -2.140625 0.21875l-4.828125 0zm1.765625 -1.578125l2.859375 0q1.3125 0 2.0625 -0.234375q0.75 -0.25 1.203125 -0.703125q0.625 -0.625 0.96875 -1.6875q0.359375 -1.0625 0.359375 -2.578125q0 -2.09375 -0.6875 -3.21875q-0.6875 -1.125 -1.671875 -1.5q-0.703125 -0.28125 -2.28125 -0.28125l-2.8125 0l0 10.203125z" fill-rule="nonzero"/></g></svg>